<svg id="图层_1" data-name="图层 1" xmlns="http://www.w3.org/2000/svg" viewBox="0 0 625 221"><defs><style>.cls-1{fill:#31a928;}</style></defs><path class="cls-1" d="M210.31,116.12c-.16-.12-.22-.19-.29-.21-12.83-3.92-21.64-15.43-19.18-31.47,1.76-11.5,12.27-21.32,24.83-22.11a28,28,0,0,1,19.44,6.08c11.72,9.1,12.69,24.91,2.23,35.4-5.05,5.06-10,10.18-15,15.28-6.5,6.62-9.25,14.83-10.07,23.85-.06.66,0,1.17.88,1.15,3.64,0,7.28-.05,10.91-.05.69,0,.94-.24,1-.95A36.68,36.68,0,0,1,228.54,132c2.63-5.15,6.38-9.42,10.44-13.48,3.28-3.27,6.62-6.49,9.69-10,8.75-9.86,10.64-21.39,6.1-33.37-5.59-14.8-17-23-32.76-24.61a38.59,38.59,0,0,0-22.79,4.57C190,60.2,183.23,67.51,180,77.68c-2,6.24-1.87,12.63-.91,19,2.1,14.21,10.92,22.93,23.37,28.7a1.27,1.27,0,0,0,1.09-.42c.78-1,1.41-2.13,2.19-3.15C207.21,119.94,208.75,118.06,210.31,116.12Z"/><path class="cls-1" d="M173.85,76.79a39.76,39.76,0,0,0-37.46-25.85,38.62,38.62,0,0,0-18.61,4.61c-16.53,8.91-24.56,28.55-18.84,46.16,6.32,19.44,29.24,32.2,50.49,24.33,15.41-5.7,24.4-17,26.23-33.59A34.44,34.44,0,0,0,173.85,76.79Zm-37,40.19a27.89,27.89,0,0,1-28-27.47c0-14.64,12.92-27.55,28.06-27.28,12.28.22,27.56,10.08,27.56,27.44C164.46,105,151.6,117,136.82,117Z"/><path class="cls-1" d="M94,127c0-.42.09-.73.09-1,0-18.8.11-37.6-.09-56.4a16.58,16.58,0,0,0-8-14.12C81.2,52.23,75.74,52,70.23,52.11c-.25,0-.68.52-.69.81q-.08,4.48,0,9c0,.29.5.79.82.84,1.26.17,2.54.22,3.81.29,3.94.19,6.91,2.1,7.91,5.3a13.83,13.83,0,0,1,.58,4q0,26.52,0,53.05V127Z"/><path class="cls-1" d="M212.32,155.69v14.09H224.7V155.69Z"/><path class="cls-1" d="M210.31,116.12c-1.56,1.94-3.1,3.82-4.58,5.74-.78,1-1.41,2.14-2.19,3.15a1.27,1.27,0,0,1-1.09.42c-12.45-5.77-21.27-14.49-23.37-28.7-1-6.42-1.07-12.81.91-19,3.24-10.17,10-17.48,19.23-22.56A38.59,38.59,0,0,1,222,50.55c15.78,1.6,27.17,9.81,32.76,24.61,4.54,12,2.65,23.51-6.1,33.37-3.07,3.46-6.41,6.68-9.69,10-4.06,4.06-7.81,8.33-10.44,13.48a36.68,36.68,0,0,0-3.47,11.13c-.11.71-.36.95-1,.95-3.63,0-7.27,0-10.91.05-.9,0-.94-.49-.88-1.15.82-9,3.57-17.23,10.07-23.85,5-5.1,10-10.22,15-15.28,10.46-10.49,9.49-26.3-2.23-35.4a28,28,0,0,0-19.44-6.08c-12.56.79-23.07,10.61-24.83,22.11-2.46,16,6.35,27.55,19.18,31.47C210.09,115.93,210.15,116,210.31,116.12Z"/><path class="cls-1" d="M173.85,76.79a39.76,39.76,0,0,0-37.46-25.85,38.62,38.62,0,0,0-18.61,4.61c-16.53,8.91-24.56,28.55-18.84,46.16,6.32,19.44,29.24,32.2,50.49,24.33,15.41-5.7,24.4-17,26.23-33.59A34.44,34.44,0,0,0,173.85,76.79Zm-37,40.19a27.89,27.89,0,0,1-28-27.47c0-14.64,12.92-27.55,28.06-27.28,12.28.22,27.56,10.08,27.56,27.44C164.46,105,151.6,117,136.82,117Z"/><path class="cls-1" d="M94,127H82.69v-1.57q0-26.52,0-53a13.83,13.83,0,0,0-.58-4c-1-3.2-4-5.11-7.91-5.3-1.27-.07-2.55-.12-3.81-.29-.32-.05-.82-.55-.82-.84q-.09-4.5,0-9c0-.29.44-.81.69-.81,5.51-.12,11,.12,15.79,3.28a16.58,16.58,0,0,1,8,14.12c.2,18.8.09,37.6.09,56.4C94.08,126.22,94,126.53,94,127Z"/><path class="cls-1" d="M212.32,155.69H224.7v14.09H212.32Z"/><path class="cls-1" d="M289.19,153.34h5.17l1.5,7.49c.26,1.64.44,3.31.7,5h.15c.29-1.67.56-3.37,1-5l1.7-7.49h4.52l1.79,7.49c.38,1.64.67,3.31,1,5h.14c.27-1.67.41-3.34.74-5l1.44-7.49h4.84L309.94,170h-6.1l-1.41-6.37c-.32-1.55-.59-3.08-.88-4.9h-.15c-.26,1.82-.49,3.35-.79,4.9L299.26,170h-6Z"/><path class="cls-1" d="M316.69,153.34h5.17l1.49,7.49c.27,1.64.44,3.31.71,5h.14c.3-1.67.56-3.37,1-5l1.71-7.49h4.52l1.79,7.49c.38,1.64.67,3.31,1,5h.15c.26-1.67.41-3.34.73-5l1.44-7.49h4.84L337.44,170h-6.1l-1.41-6.37c-.33-1.55-.59-3.08-.88-4.9h-.15c-.26,1.82-.5,3.35-.79,4.9L326.76,170h-6Z"/><path class="cls-1" d="M344.19,153.34h5.16l1.5,7.49c.26,1.64.44,3.31.7,5h.15c.29-1.67.56-3.37,1-5l1.7-7.49h4.52l1.79,7.49c.38,1.64.68,3.31,1,5h.15c.26-1.67.41-3.34.73-5l1.44-7.49h4.84L364.94,170h-6.11l-1.41-6.37c-.32-1.55-.58-3.08-.88-4.9h-.14c-.27,1.82-.5,3.35-.8,4.9L354.25,170H348.3Z"/><path class="cls-1" d="M369.92,167.19a3.12,3.12,0,1,1,6.23,0,3.12,3.12,0,1,1-6.23,0Z"/><path class="cls-1" d="M381.63,165.81h4.64V153.4h-4v-3.23a14.72,14.72,0,0,0,5.4-2h3.84v17.61h3.94V170h-13.8Z"/><path class="cls-1" d="M399.59,159c0-7.52,3.11-11.22,7.72-11.22s7.75,3.76,7.75,11.22-3.14,11.44-7.75,11.44S399.59,166.52,399.59,159Zm10.54,0c0-6-1.26-7.2-2.82-7.2s-2.79,1.24-2.79,7.2,1.23,7.39,2.79,7.39S410.13,165,410.13,159Z"/><path class="cls-1" d="M418.64,159c0-7.52,3.11-11.22,7.72-11.22s7.74,3.76,7.74,11.22-3.14,11.44-7.74,11.44S418.64,166.52,418.64,159Zm10.53,0c0-6-1.26-7.2-2.81-7.2s-2.79,1.24-2.79,7.2,1.23,7.39,2.79,7.39S429.17,165,429.17,159Z"/><path class="cls-1" d="M437.86,165.37c0-3.52,2.76-5.43,9.27-6.13-.11-1.35-.82-2.14-2.52-2.14a9.23,9.23,0,0,0-4.37,1.46l-1.82-3.43a13.87,13.87,0,0,1,7.19-2.2c4.31,0,6.75,2.41,6.75,7.63V170H448.1l-.38-1.67h-.12a7.13,7.13,0,0,1-4.78,2.08A4.82,4.82,0,0,1,437.86,165.37Zm9.27-.29v-2.67c-3.25.44-4.31,1.38-4.31,2.55,0,1,.7,1.44,1.79,1.44A3.28,3.28,0,0,0,447.13,165.08Z"/><path class="cls-1" d="M456.11,168.1l2.32-3.25a7.11,7.11,0,0,0,4.23,1.76c1.38,0,2-.5,2-1.32,0-1-1.61-1.47-3.31-2.15-2-.79-4.35-2.14-4.35-4.9,0-3.17,2.58-5.31,6.46-5.31a9.76,9.76,0,0,1,6,2.14l-2.35,3.11a6.45,6.45,0,0,0-3.46-1.41c-1.18,0-1.77.42-1.77,1.21,0,1,1.53,1.38,3.26,2,2.09.8,4.4,2,4.4,5s-2.4,5.46-6.95,5.46A10.72,10.72,0,0,1,456.11,168.1Z"/><path class="cls-1" d="M473.69,146.59h5.08v13.09h.11l5.08-6.34h5.67l-5.9,6.9L490,170h-5.67l-3.61-6.34-2,2.26V170h-5.08Z"/><path class="cls-1" d="M493.5,167.19a3.11,3.11,0,1,1,6.22,0,3.11,3.11,0,1,1-6.22,0Z"/><path class="cls-1" d="M505,153.34h4.26l.35,2.08h.12a7.55,7.55,0,0,1,5.34-2.49c3.64,0,5.19,2.61,5.19,6.78V170h-5.22v-9.68c0-2.29-.62-3-1.94-3-1.17,0-1.88.53-2.91,1.5V170H505Z"/><path class="cls-1" d="M524.57,161.71c0-5.43,3.88-8.78,7.93-8.78,4.81,0,7.16,3.49,7.16,8.07a10,10,0,0,1-.23,2.23h-9.81a3.82,3.82,0,0,0,4.17,3.23,6.74,6.74,0,0,0,3.52-1.06l1.73,3.14a10.73,10.73,0,0,1-6,1.91C528.27,170.45,524.57,167.22,524.57,161.71Zm10.66-1.88c0-1.68-.74-2.91-2.64-2.91-1.44,0-2.7.91-3.06,2.91Z"/><path class="cls-1" d="M544.5,163.85v-6.43h-2.26v-3.87l2.55-.21.59-4.4h4.34v4.4h3.94v4.08h-3.94v6.37c0,1.85.88,2.58,2.12,2.58a5.7,5.7,0,0,0,1.52-.29l.83,3.76a12.48,12.48,0,0,1-3.79.61C546.2,170.45,544.5,167.81,544.5,163.85Z"/><rect class="cls-1" x="288.19" y="50.91" width="86.46" height="9.42"/><rect class="cls-1" x="385.78" y="50.91" width="19.69" height="9.42"/><rect class="cls-1" x="443.13" y="123.67" width="19.69" height="9.42"/><rect class="cls-1" x="530.45" y="123.67" width="23.11" height="9.42"/><rect class="cls-1" x="415.74" y="50.91" width="47.08" height="9.42"/><rect class="cls-1" x="479.09" y="50.91" width="74.48" height="9.42"/><rect class="cls-1" x="299.31" y="71.45" width="64.2" height="9.42"/><rect class="cls-1" x="299.31" y="97.13" width="64.2" height="9.42"/><rect class="cls-1" x="299.31" y="123.67" width="64.2" height="9.42"/><rect class="cls-1" x="273.2" y="97.56" width="61.64" height="9.42" transform="translate(406.29 -201.75) rotate(90)"/><rect class="cls-1" x="327.99" y="97.56" width="61.64" height="9.42" transform="translate(461.08 -256.54) rotate(90)"/><rect class="cls-1" x="356.24" y="94.14" width="68.48" height="9.42" transform="translate(489.33 -291.64) rotate(90)"/><rect class="cls-1" x="393.05" y="88.15" width="34.24" height="9.42" transform="translate(503.03 -317.32) rotate(90)"/><rect class="cls-1" x="408.03" y="75.73" width="34.24" height="9.42" transform="translate(850.31 160.88) rotate(180)"/><rect class="cls-1" x="408.03" y="100.56" width="34.24" height="9.42" transform="translate(850.31 210.53) rotate(180)"/><rect class="cls-1" x="421.3" y="88.15" width="34.24" height="9.42" transform="translate(531.28 -345.57) rotate(90)"/><rect class="cls-1" x="418.31" y="88.57" width="79.61" height="9.42" transform="translate(551.39 -364.83) rotate(90)"/><rect class="cls-1" x="441.85" y="87.29" width="82.18" height="9.42" transform="translate(574.94 -390.94) rotate(90)"/><polygon class="cls-1" points="510.29 112.92 489.1 68.5 497.67 68.5 518.87 112.92 510.29 112.92"/><polygon class="cls-1" points="497.67 112.92 518.87 68.5 510.29 68.5 489.1 112.92 497.67 112.92"/><polygon class="cls-1" points="533.71 112.92 512.52 68.5 521.1 68.5 542.29 112.92 533.71 112.92"/><polygon class="cls-1" points="521.1 112.92 542.29 68.5 533.71 68.5 512.52 112.92 521.1 112.92"/><polygon class="cls-1" points="325 74.02 329.28 51.76 338.69 51.76 334.41 74.02 325 74.02"/><rect class="cls-1" x="508.19" y="87.44" width="81.33" height="9.42" transform="translate(641 -456.71) rotate(90)"/><path class="cls-1" d="M212.31,116.12c-.16-.12-.22-.19-.29-.21-12.83-3.92-21.64-15.43-19.18-31.47,1.76-11.5,12.27-21.32,24.83-22.11a28,28,0,0,1,19.44,6.08c11.72,9.1,12.69,24.91,2.23,35.4-5.05,5.06-10,10.18-15,15.28-6.5,6.62-9.25,14.83-10.07,23.85-.06.66,0,1.17.88,1.15,3.64,0,7.28-.05,10.91-.05.69,0,.94-.24,1-.95A36.68,36.68,0,0,1,230.54,132c2.63-5.15,6.38-9.42,10.44-13.48,3.28-3.27,6.62-6.49,9.69-10,8.75-9.86,10.64-21.39,6.1-33.37-5.59-14.8-17-23-32.76-24.61a38.59,38.59,0,0,0-22.79,4.57C192,60.2,185.23,67.51,182,77.68c-2,6.24-1.87,12.63-.91,19,2.1,14.21,10.92,22.93,23.37,28.7a1.27,1.27,0,0,0,1.09-.42c.78-1,1.41-2.13,2.19-3.15C209.21,119.94,210.75,118.06,212.31,116.12Z"/><path class="cls-1" d="M175.85,76.79a39.76,39.76,0,0,0-37.46-25.85,38.62,38.62,0,0,0-18.61,4.61c-16.53,8.91-24.56,28.55-18.84,46.16,6.32,19.44,29.24,32.2,50.49,24.33,15.41-5.7,24.4-17,26.23-33.59A34.44,34.44,0,0,0,175.85,76.79Zm-37,40.19a27.89,27.89,0,0,1-28-27.47c0-14.64,12.92-27.55,28.06-27.28,12.28.22,27.56,10.08,27.56,27.44C166.46,105,153.6,117,138.82,117Z"/><path class="cls-1" d="M96,127c0-.42.09-.73.09-1,0-18.8.11-37.6-.09-56.4a16.58,16.58,0,0,0-8-14.12C83.2,52.23,77.74,52,72.23,52.11c-.25,0-.68.52-.69.81q-.08,4.48,0,9c0,.29.5.79.82.84,1.26.17,2.54.22,3.81.29,3.94.19,6.91,2.1,7.91,5.3a13.83,13.83,0,0,1,.58,4q0,26.52,0,53.05V127Z"/><path class="cls-1" d="M214.32,155.69v14.09H226.7V155.69Z"/><path class="cls-1" d="M212.31,116.12c-1.56,1.94-3.1,3.82-4.58,5.74-.78,1-1.41,2.14-2.19,3.15a1.27,1.27,0,0,1-1.09.42c-12.45-5.77-21.27-14.49-23.37-28.7-1-6.42-1.07-12.81.91-19,3.24-10.17,10-17.48,19.23-22.56A38.59,38.59,0,0,1,224,50.55c15.78,1.6,27.17,9.81,32.76,24.61,4.54,12,2.65,23.51-6.1,33.37-3.07,3.46-6.41,6.68-9.69,10-4.06,4.06-7.81,8.33-10.44,13.48a36.68,36.68,0,0,0-3.47,11.13c-.11.71-.36.95-1,.95-3.63,0-7.27,0-10.91.05-.9,0-.94-.49-.88-1.15.82-9,3.57-17.23,10.07-23.85,5-5.1,10-10.22,15-15.28,10.46-10.49,9.49-26.3-2.23-35.4a28,28,0,0,0-19.44-6.08c-12.56.79-23.07,10.61-24.83,22.11-2.46,16,6.35,27.55,19.18,31.47C212.09,115.93,212.15,116,212.31,116.12Z"/><path class="cls-1" d="M175.85,76.79a39.76,39.76,0,0,0-37.46-25.85,38.62,38.62,0,0,0-18.61,4.61c-16.53,8.91-24.56,28.55-18.84,46.16,6.32,19.44,29.24,32.2,50.49,24.33,15.41-5.7,24.4-17,26.23-33.59A34.44,34.44,0,0,0,175.85,76.79Zm-37,40.19a27.89,27.89,0,0,1-28-27.47c0-14.64,12.92-27.55,28.06-27.28,12.28.22,27.56,10.08,27.56,27.44C166.46,105,153.6,117,138.82,117Z"/><path class="cls-1" d="M96,127H84.69v-1.57q0-26.52,0-53a13.83,13.83,0,0,0-.58-4c-1-3.2-4-5.11-7.91-5.3-1.27-.07-2.55-.12-3.81-.29-.32-.05-.82-.55-.82-.84q-.09-4.5,0-9c0-.29.44-.81.69-.81,5.51-.12,11,.12,15.79,3.28a16.58,16.58,0,0,1,8,14.12c.2,18.8.09,37.6.09,56.4C96.08,126.22,96,126.53,96,127Z"/><path class="cls-1" d="M214.32,155.69H226.7v14.09H214.32Z"/><path class="cls-1" d="M291.19,153.34h5.17l1.5,7.49c.26,1.64.44,3.31.7,5h.15c.29-1.67.56-3.37,1-5l1.7-7.49h4.52l1.79,7.49c.38,1.64.67,3.31,1,5h.14c.27-1.67.41-3.34.74-5l1.44-7.49h4.84L311.94,170h-6.1l-1.41-6.37c-.32-1.55-.59-3.08-.88-4.9h-.15c-.26,1.82-.49,3.35-.79,4.9L301.26,170h-6Z"/><path class="cls-1" d="M318.69,153.34h5.17l1.49,7.49c.27,1.64.44,3.31.71,5h.14c.3-1.67.56-3.37,1-5l1.71-7.49h4.52l1.79,7.49c.38,1.64.67,3.31,1,5h.15c.26-1.67.41-3.34.73-5l1.44-7.49h4.84L339.44,170h-6.1l-1.41-6.37c-.33-1.55-.59-3.08-.88-4.9h-.15c-.26,1.82-.5,3.35-.79,4.9L328.76,170h-6Z"/><path class="cls-1" d="M346.19,153.34h5.16l1.5,7.49c.26,1.64.44,3.31.7,5h.15c.29-1.67.56-3.37,1-5l1.7-7.49h4.52l1.79,7.49c.38,1.64.68,3.31,1,5h.15c.26-1.67.41-3.34.73-5l1.44-7.49h4.84L366.94,170h-6.11l-1.41-6.37c-.32-1.55-.58-3.08-.88-4.9h-.14c-.27,1.82-.5,3.35-.8,4.9L356.25,170H350.3Z"/><path class="cls-1" d="M371.92,167.19a3.12,3.12,0,1,1,6.23,0,3.12,3.12,0,1,1-6.23,0Z"/><path class="cls-1" d="M383.63,165.81h4.64V153.4h-4v-3.23a14.72,14.72,0,0,0,5.4-2h3.84v17.61h3.94V170h-13.8Z"/><path class="cls-1" d="M401.59,159c0-7.52,3.11-11.22,7.72-11.22s7.75,3.76,7.75,11.22-3.14,11.44-7.75,11.44S401.59,166.52,401.59,159Zm10.54,0c0-6-1.26-7.2-2.82-7.2s-2.79,1.24-2.79,7.2,1.23,7.39,2.79,7.39S412.13,165,412.13,159Z"/><path class="cls-1" d="M420.64,159c0-7.52,3.11-11.22,7.72-11.22s7.74,3.76,7.74,11.22-3.14,11.44-7.74,11.44S420.64,166.52,420.64,159Zm10.53,0c0-6-1.26-7.2-2.81-7.2s-2.79,1.24-2.79,7.2,1.23,7.39,2.79,7.39S431.17,165,431.17,159Z"/><path class="cls-1" d="M439.86,165.37c0-3.52,2.76-5.43,9.27-6.13-.11-1.35-.82-2.14-2.52-2.14a9.23,9.23,0,0,0-4.37,1.46l-1.82-3.43a13.87,13.87,0,0,1,7.19-2.2c4.31,0,6.75,2.41,6.75,7.63V170H450.1l-.38-1.67h-.12a7.13,7.13,0,0,1-4.78,2.08A4.82,4.82,0,0,1,439.86,165.37Zm9.27-.29v-2.67c-3.25.44-4.31,1.38-4.31,2.55,0,1,.7,1.44,1.79,1.44A3.28,3.28,0,0,0,449.13,165.08Z"/><path class="cls-1" d="M458.11,168.1l2.32-3.25a7.11,7.11,0,0,0,4.23,1.76c1.38,0,2-.5,2-1.32,0-1-1.61-1.47-3.31-2.15-2-.79-4.35-2.14-4.35-4.9,0-3.17,2.58-5.31,6.46-5.31a9.76,9.76,0,0,1,6,2.14l-2.35,3.11a6.45,6.45,0,0,0-3.46-1.41c-1.18,0-1.77.42-1.77,1.21,0,1,1.53,1.38,3.26,2,2.09.8,4.4,2,4.4,5s-2.4,5.46-6.95,5.46A10.72,10.72,0,0,1,458.11,168.1Z"/><path class="cls-1" d="M475.69,146.59h5.08v13.09h.11l5.08-6.34h5.67l-5.9,6.9L492,170h-5.67l-3.61-6.34-2,2.26V170h-5.08Z"/><path class="cls-1" d="M495.5,167.19a3.11,3.11,0,1,1,6.22,0,3.11,3.11,0,1,1-6.22,0Z"/><path class="cls-1" d="M507,153.34h4.26l.35,2.08h.12a7.55,7.55,0,0,1,5.34-2.49c3.64,0,5.19,2.61,5.19,6.78V170h-5.22v-9.68c0-2.29-.62-3-1.94-3-1.17,0-1.88.53-2.91,1.5V170H507Z"/><path class="cls-1" d="M526.57,161.71c0-5.43,3.88-8.78,7.93-8.78,4.81,0,7.16,3.49,7.16,8.07a10,10,0,0,1-.23,2.23h-9.81a3.82,3.82,0,0,0,4.17,3.23,6.74,6.74,0,0,0,3.52-1.06l1.73,3.14a10.73,10.73,0,0,1-6,1.91C530.27,170.45,526.57,167.22,526.57,161.71Zm10.66-1.88c0-1.68-.74-2.91-2.64-2.91-1.44,0-2.7.91-3.06,2.91Z"/><path class="cls-1" d="M546.5,163.85v-6.43h-2.26v-3.87l2.55-.21.59-4.4h4.34v4.4h3.94v4.08h-3.94v6.37c0,1.85.88,2.58,2.12,2.58a5.7,5.7,0,0,0,1.52-.29l.83,3.76a12.48,12.48,0,0,1-3.79.61C548.2,170.45,546.5,167.81,546.5,163.85Z"/><rect class="cls-1" x="290.19" y="50.91" width="86.46" height="9.42"/><rect class="cls-1" x="387.78" y="50.91" width="19.69" height="9.42"/><rect class="cls-1" x="445.13" y="123.67" width="19.69" height="9.42"/><rect class="cls-1" x="532.45" y="123.67" width="23.11" height="9.42"/><rect class="cls-1" x="417.74" y="50.91" width="47.08" height="9.42"/><rect class="cls-1" x="481.09" y="50.91" width="74.48" height="9.42"/><rect class="cls-1" x="301.31" y="71.45" width="64.2" height="9.42"/><rect class="cls-1" x="301.31" y="97.13" width="64.2" height="9.42"/><rect class="cls-1" x="301.31" y="123.67" width="64.2" height="9.42"/><rect class="cls-1" x="275.2" y="97.56" width="61.64" height="9.42" transform="translate(408.29 -203.75) rotate(90)"/><rect class="cls-1" x="329.99" y="97.56" width="61.64" height="9.42" transform="translate(463.08 -258.54) rotate(90)"/><rect class="cls-1" x="358.24" y="94.14" width="68.48" height="9.42" transform="translate(491.33 -293.64) rotate(90)"/><rect class="cls-1" x="395.05" y="88.15" width="34.24" height="9.42" transform="translate(505.03 -319.32) rotate(90)"/><rect class="cls-1" x="410.03" y="75.73" width="34.24" height="9.42" transform="translate(854.31 160.88) rotate(180)"/><rect class="cls-1" x="410.03" y="100.56" width="34.24" height="9.42" transform="translate(854.31 210.53) rotate(180)"/><rect class="cls-1" x="423.3" y="88.15" width="34.24" height="9.42" transform="translate(533.28 -347.57) rotate(90)"/><rect class="cls-1" x="420.31" y="88.57" width="79.61" height="9.42" transform="translate(553.39 -366.83) rotate(90)"/><rect class="cls-1" x="443.85" y="87.29" width="82.18" height="9.42" transform="translate(576.94 -392.94) rotate(90)"/><polygon class="cls-1" points="512.29 112.92 491.1 68.5 499.67 68.5 520.87 112.92 512.29 112.92"/><polygon class="cls-1" points="499.67 112.92 520.87 68.5 512.29 68.5 491.1 112.92 499.67 112.92"/><polygon class="cls-1" points="535.71 112.92 514.52 68.5 523.1 68.5 544.29 112.92 535.71 112.92"/><polygon class="cls-1" points="523.1 112.92 544.29 68.5 535.71 68.5 514.52 112.92 523.1 112.92"/><polygon class="cls-1" points="327 74.02 331.28 51.76 340.69 51.76 336.41 74.02 327 74.02"/><rect class="cls-1" x="510.19" y="87.44" width="81.33" height="9.42" transform="translate(643 -458.71) rotate(90)"/></svg>